<svg width="18" height="16" viewBox="0 0 18 16" fill="none" xmlns="http://www.w3.org/2000/svg">
<path id="&#237;&#140;&#168;&#236;&#138;&#164; 8742" d="M9.07479 -0.00012207C4.37927 -0.00012207 0.572998 3.06128 0.572998 6.83228C0.631026 8.07365 1.03492 9.27407 1.73906 10.298C2.44321 11.3219 3.41955 12.1285 4.55784 12.6266C4.42841 13.0845 3.71893 15.5742 3.69256 15.7696C3.69256 15.7696 3.67578 15.9158 3.76806 15.9721C3.79914 15.9881 3.8332 15.9974 3.86807 15.9994C3.90294 16.0015 3.93786 15.9963 3.9706 15.9841C4.23905 15.9458 7.07698 13.9152 7.56595 13.5652C8.06457 13.6359 8.5676 13.6707 9.0712 13.6695C13.7667 13.6695 17.573 10.6081 17.573 6.83708C17.573 3.06607 13.7703 -0.00012207 9.07479 -0.00012207Z" fill="#3C1E1E"/>
</svg>
